<?xml version="1.0" encoding="UTF-8" standalone="no"?>
<svg xmlns:dc="http://purl.org/dc/elements/1.1/"
  xmlns:cc="http://creativecommons.org/ns#"
  xmlns:rdf="http://www.w3.org/1999/02/22-rdf-syntax-ns#"
  xmlns:svg="http://www.w3.org/2000/svg"
  xmlns="http://www.w3.org/2000/svg"
  xmlns:sodipodi="http://sodipodi.sourceforge.net/DTD/sodipodi-0.dtd" version="1.1" x="0px" y="0px" viewBox="0 0 100 100" xml:space="preserve" id="svg22" sodipodi:docname="taalgenie.svg" width="100" height="100">
  <metadata id="metadata28">
    <rdf:RDF>
      <cc:Work rdf:about="">
        <dc:format>image/svg+xml</dc:format>
        <dc:type rdf:resource="http://purl.org/dc/dcmitype/StillImage" />
        <dc:title></dc:title>
      </cc:Work>
    </rdf:RDF>
  </metadata>
  <defs id="defs26" />
  <sodipodi:namedview pagecolor="#ffffff" />
  <g transform="matrix(4.7388393,0,0,4.7388393,2.7953806,2.6937042)">
    <path fill="white" d="M 10,11 C 11.9,11 13.5,9.4 13.5,7.5 13.5,5.6 11.9,4 10,4 8.1,4 6.5,5.6 6.5,7.5 6.5,9.4 8.1,11 10,11 Z m 0,-5 c 0.8,0 1.5,0.7 1.5,1.5 C 11.5,8.3 10.8,9 10,9 9.2,9 8.5,8.3 8.5,7.5 8.5,6.7 9.2,6 10,6 Z"/>
    <path fill="white" d="m 10,12 c -3.9,0 -7,3.1 -7,7 0,0.6 0.4,1 1,1 h 12 c 0.6,0 1,-0.4 1,-1 0,-3.9 -3.1,-7 -7,-7 z m -4.9,6 c 0.5,-2.3 2.5,-4 4.9,-4 2.4,0 4.4,1.7 4.9,4 z"/>
    <path fill="white" d="m 10,3 c 0.6,0 1,-0.4 1,-1 V 1 C 11,0.4 10.6,0 10,0 9.4,0 9,0.4 9,1 v 1 c 0,0.6 0.4,1 1,1 z"/>
    <path fill="white" d="m 14.6,4.3 0.7,-0.7 c 0.4,-0.4 0.4,-1 0,-1.4 -0.4,-0.4 -1,-0.4 -1.4,0 l -0.7,0.7 c -0.4,0.4 -0.4,1 0,1.4 0.4,0.4 1,0.4 1.4,0 z"/>
    <path fill="white" d="m 16.5,6.5 h -1 c -0.6,0 -1,0.4 -1,1 0,0.6 0.4,1 1,1 h 1 c 0.6,0 1,-0.4 1,-1 0,-0.6 -0.4,-1 -1,-1 z"/>
    <path fill="white" d="m 5.4,4.3 c 0.4,0.4 1,0.4 1.4,0 0.4,-0.4 0.4,-1 0,-1.4 L 6.1,2.2 c -0.4,-0.4 -1,-0.4 -1.4,0 -0.4,0.4 -0.4,1 0,1.4 z"/>
    <path fill="white" d="m 4.5,8.5 c 0.6,0 1,-0.4 1,-1 0,-0.6 -0.4,-1 -1,-1 h -1 c -0.6,0 -1,0.4 -1,1 0,0.6 0.4,1 1,1 z"/>
  </g>
</svg>